# xmcd
#
# Track frame offsets:
#	150
#	21939
#	36764
#	50101
#	70223
#	82536
#	98235
#	110868
#	125382
#	140506
#	154227
#	167630
#	190510
#	203760
#	227620
#	241414
#
# Disc length: 3650 seconds
#
# Revision: 0
# Processed by: cddbd v1.5.1PL0 Copyright (c) Steve Scherf et al.
# Submitted via: EasyCDDAExtractor 8.2.2.1
#
DISCID=d30e4010
DTITLE=Various Artist - Blues and Tears
DYEAR=1900
DGENRE=Blues
TTITLE0=Lightnin' Hopkins - It's Your Own Fault
TTITLE1=Brownie McGhee - See See Rider
TTITLE2=Memphis Slim - El Capitan
TTITLE3=Otis Spann - Country Boy Blues
TTITLE4=Jazz Gillum - New Key To The Highway
TTITLE5=Robert Lockwood jr. - Take A Little Walk With Me
TTITLE6=Roosevelt Sykes - Ups And Downs Blues
TTITLE7=Lonnie Johnson - Racketeers Blues
TTITLE8=Trixie Smith - Freight Train Blues
TTITLE9=Sleepy John Estes - Someday Baby
TTITLE10=Various Artist - Cabbage Greens
TTITLE11=Art Hodes - Mamie's Blues
TTITLE12=Big Bill Broonzy - It's A Low Down Dirty Shame
TTITLE13=Carrie Smith - When I've Been Drinkin'
TTITLE14=Bo Diddley - Bring It To Jerome
TTITLE15=Muddy Waters - Goin' Down Slow
EXTD=
EXTT0=
EXTT1=
EXTT2=
EXTT3=
EXTT4=
EXTT5=
EXTT6=
EXTT7=
EXTT8=
EXTT9=
EXTT10=
EXTT11=
EXTT12=
EXTT13=
EXTT14=
EXTT15=
PLAYORDER=
